<svg version="1.2" xmlns="http://www.w3.org/2000/svg" viewBox="0 0 60 67" width="60" height="67"><style>.a{fill:#fff}</style><path fill-rule="evenodd" class="a" d="m33.2 24.2c1.6-1.2 3.7-2.9 5.7-5.1 0.6 0.9 0.8 1.8 0.7 2.5q-0.1 0.8-0.7 1.5-0.7 0.6-1.6 1c-1.2 0.5-2.7 0.6-4.1 0.1zm1.8 9.1l2.6 1c-4.4 3.5-4.9 8.8-5.6 14-2.4-4.7-4.6-9.5-9.9-11.5l2.2-1.7q0.3-0.2 0.5-0.6 0.1-0.3 0-0.7c-0.9-4.6 0-6.8 1.4-8.4 0.6-0.5 1.2-0.9 1.8-1 0.7-0.1 1.4 0 2.1 0.4 1.8 1 3.4 2.8 4 7.5q0 0.4 0.3 0.6 0.2 0.3 0.6 0.4zm-10.3-29.2c2.7-0.4 5.6-0.3 8.1 0.3q2.7 0.7 5.1 2.1c0.7 0.4 1.3 0.8 2 1.3 1.5-0.2 3.5-2.3 4.3-4.1-0.8 6.2-7.9 14.6-13.2 18.2q0 0 0 0c-1.1-0.6-2.3-0.8-3.5-0.6-1.1 0.1-2.2 0.7-3.1 1.7q0 0 0 0c-6.2-1.7-15.6-7.4-18.4-13 1.4 1.4 3.9 2.8 5.4 2.5 0.5-0.7 1-1.3 1.5-1.9q1.8-2.1 4.1-3.6c2.3-1.4 4.9-2.4 7.7-2.9zm-5.5 23q-1 0-1.9-0.5-0.7-0.4-1.1-1.1c-0.4-0.7-0.5-1.5-0.2-2.6 2.6 1.4 5.1 2.3 7.1 2.9-1.2 1-2.6 1.4-3.9 1.3z"/><path fill-rule="evenodd" class="a" d="m41 16.5c1.1-1.5 2-3.1 2.6-4.5l0.6 0.8c2 2.6 3.2 5.4 3.8 8.7l0.8 5.2 0.5 2.7c1.2 6.6 3.7 13 8 18.6l-7.7-4.3-3.5 8.5-5.8-3.9-5.9 14.4-10.2-11.7-4.3 5.6-6.1-7-5.8 6.6c2.2-6.7 2.5-13.6 1.5-20.2l-0.4-2.7-0.9-5.2c-0.5-3.3-0.2-6.3 0.7-9.5l0.4-0.9c1.1 1.1 2.4 2.3 3.9 3.4l-0.3 0.9c-0.5 1.7-0.5 3.5 0.4 5.1 0.6 1 1.4 1.8 2.5 2.4 1 0.5 2.1 0.8 3.2 0.9q1.1 0 2.2-0.2 0 1.5 0.2 3l-5.8 4.8 5.4 1.9q0.7 0.2 1.3 0.6c4.6 3 8.9 13.4 11.4 18.4 0.8-5.6 1.5-16.8 5-21.1q0.4-0.5 1-1l4.4-3.6-7-2.6q-0.2-1.5-0.7-2.9 1.1-0.1 2.1-0.5c1.1-0.5 2-1.1 2.8-1.9 0.8-0.9 1.3-2 1.5-3.1 0.3-1.8-0.2-3.5-1.2-5l-0.6-0.7z"/></svg>