<svg width="27" height="23" fill="none" xmlns="http://www.w3.org/2000/svg"><path fill-rule="evenodd" clip-rule="evenodd" d="M1.93 9.793C8.976 6.705 13.675 4.67 16.026 3.687 22.74.879 24.134.392 25.043.376c.2-.004.647.046.936.282.245.2.312.47.344.658.033.19.073.62.04.957-.363 3.844-1.937 13.17-2.738 17.475-.338 1.821-1.006 2.432-1.652 2.492-1.403.13-2.47-.933-3.829-1.83-2.127-1.402-3.329-2.274-5.394-3.643-2.386-1.581-.84-2.45.52-3.87.357-.373 6.541-6.03 6.661-6.542.015-.065.029-.304-.113-.43-.14-.126-.35-.083-.5-.049-.213.049-3.612 2.308-10.196 6.776-.964.667-1.838.991-2.62.974-.864-.019-2.524-.49-3.758-.894-1.514-.495-2.717-.756-2.612-1.597.054-.437.654-.885 1.798-1.342Z" fill="#fff"/></svg>