<svg width="35" height="30" viewBox="0 0 35 30" fill="none" xmlns="http://www.w3.org/2000/svg">
<path fill-rule="evenodd" clip-rule="evenodd" d="M2.40607 12.5561C11.8013 8.43997 18.0662 5.72639 21.2009 4.41533C30.1511 0.671963 32.0108 0.0217009 33.223 0.000228866C33.4896 -0.00449367 34.0857 0.061946 34.4719 0.377009C34.7979 0.643041 34.8876 1.00241 34.9306 1.25464C34.9735 1.50687 35.0269 2.08145 34.9844 2.53041C34.4994 7.65479 32.4008 20.0903 31.3331 25.8297C30.8813 28.2582 29.9918 29.0725 29.1306 29.1522C27.2591 29.3254 25.8379 27.9085 24.0252 26.7136C21.1887 24.8439 19.5862 23.68 16.8329 21.8556C13.6509 19.7471 15.7137 18.5882 17.527 16.6943C18.0016 16.1986 26.2477 8.65644 26.4074 7.97225C26.4273 7.88668 26.4458 7.56771 26.2574 7.39929C26.069 7.23086 25.7908 7.28846 25.5901 7.33426C25.3056 7.39919 20.7743 10.4109 11.996 16.3694C10.7098 17.2575 9.54479 17.6902 8.50097 17.6675C7.35026 17.6426 5.13673 17.0133 3.49121 16.4754C1.4729 15.8157 -0.131203 15.4669 0.00847911 14.3465C0.081234 13.7629 0.88043 13.1661 2.40607 12.5561Z" fill="#3573C5"/>
</svg>
